<svg xmlns="http://www.w3.org/2000/svg" width="70" height="70" fill="none" viewBox="0 0 70 70"><defs><linearGradient id="teamcity_svg__a" x1="1.774" x2="40.157" y1="31.349" y2="31.349" gradientUnits="userSpaceOnUse"><stop offset="0" stop-color="#905CFB"/><stop offset=".068" stop-color="#776CF9"/><stop offset=".173" stop-color="#5681F7"/><stop offset=".286" stop-color="#3B92F5"/><stop offset=".41" stop-color="#269FF4"/><stop offset=".547" stop-color="#17A9F3"/><stop offset=".711" stop-color="#0FAEF2"/><stop offset=".968" stop-color="#0CB0F2"/></linearGradient><linearGradient id="teamcity_svg__b" x1="5.31" x2="69.206" y1="9.754" y2="43.948" gradientUnits="userSpaceOnUse"><stop offset="0" stop-color="#905CFB"/><stop offset=".068" stop-color="#776CF9"/><stop offset=".173" stop-color="#5681F7"/><stop offset=".286" stop-color="#3B92F5"/><stop offset=".41" stop-color="#269FF4"/><stop offset=".547" stop-color="#17A9F3"/><stop offset=".711" stop-color="#0FAEF2"/><stop offset=".968" stop-color="#0CB0F2"/></linearGradient><linearGradient id="teamcity_svg__c" x1="-19.279" x2="55.965" y1="70.878" y2="33.248" gradientUnits="userSpaceOnUse"><stop offset="0" stop-color="#3BEA62"/><stop offset=".117" stop-color="#31DE80"/><stop offset=".302" stop-color="#24CEA8"/><stop offset=".484" stop-color="#1AC1C9"/><stop offset=".659" stop-color="#12B7DF"/><stop offset=".824" stop-color="#0EB2ED"/><stop offset=".968" stop-color="#0CB0F2"/></linearGradient><linearGradient id="teamcity_svg__d" x1="38.935" x2="5.434" y1="5.937" y2="77.57" gradientUnits="userSpaceOnUse"><stop offset="0" stop-color="#3BEA62"/><stop offset=".094" stop-color="#2FDB87"/><stop offset=".196" stop-color="#24CEA8"/><stop offset=".306" stop-color="#1BC3C3"/><stop offset=".426" stop-color="#14BAD8"/><stop offset=".56" stop-color="#10B5E7"/><stop offset=".719" stop-color="#0DB1EF"/><stop offset=".968" stop-color="#0CB0F2"/></linearGradient></defs><path fill="url(#teamcity_svg__a)" d="m39.691 47.968-6.098-33.985c-.4-2.399-1.2-4.797-2.7-7.096-2-3.199-5.199-5.398-8.798-6.298C7.898-2.809-2.599 11.385 3.6 23.98l14.797 31.686c.4 1 1 2 1.7 2.899 1.2 1.6 2.799 2.798 4.699 3.398 9.597 2.999 17.296-5.497 14.896-13.994Z"/><path fill="url(#teamcity_svg__b)" d="M67.385 26.578a12.86 12.86 0 0 0-5.699-4.898L25.495 1.789c-1-.5-2.1-1-3.3-1.3C6.7-3.109-4.399 13.883 5.5 27.078c1.5 1.999 3.6 3.598 5.999 4.498l36.491 16.392c.8.5 1.6.8 2.5 1.1 13.997 4.398 24.594-10.395 16.896-22.49Z"/><path fill="url(#teamcity_svg__c)" d="M67.385 26.578c-1.8-2.799-4.599-4.798-7.898-5.598-3.5-.8-6.799-.5-9.598.7L11.398 36.173s-.2.1-.6.4C.9 40.472-3.999 53.366 4 64.061c1.8 2.4 4.299 4.198 7.098 4.998 5.299 1.6 10.098 1 13.997-1.1h.1l37.591-20.09.1-.1c6.599-3.799 9.698-13.095 4.5-21.191Z"/><path fill="url(#teamcity_svg__d)" d="M50.289 12.884c1.2-2.699 1.1-5.997-.9-8.996-1.1-1.8-2.9-2.999-4.899-3.499-4.499-1.1-8.298 1-10.098 4.199L3.5 42.07v.1c-4.4 5.797-5.1 14.394.5 21.89 1.8 2.4 4.298 4.198 7.098 4.998 10.497 3.299 19.295-2.499 22.095-10.795l17.096-45.38Z"/><path fill="#000" d="M56 14H14v42h42V14Z"/><path fill="#FFF" d="M34.417 48.65h-15.75v2.683h15.75V48.65ZM23.783 22.19H19v-3.188h13.024v3.189h-4.783v12.53h-3.458V22.19ZM33.324 26.906v-.044a7.99 7.99 0 0 1 8.196-8.13c2.964 0 4.738.989 6.198 2.425l-2.201 2.538c-1.213-1.1-2.447-1.774-4.02-1.774-2.649 0-4.558 2.201-4.558 4.896v.044c0 2.695 1.864 4.94 4.558 4.94 1.797 0 2.897-.718 4.132-1.84l2.2 2.223a8.036 8.036 0 0 1-6.444 2.807 7.932 7.932 0 0 1-8.061-8.085"/></svg>